<svg xmlns="http://www.w3.org/2000/svg" xmlns:svg="http://www.w3.org/2000/svg" id="svg6566" width="423.353" height="593.503" version="1.1" viewBox="0 0 112.012 157.031"><defs id="defs6563"><marker style="overflow:visible" id="Dot" markerHeight="5.667" markerWidth="5.667" orient="auto" preserveAspectRatio="xMidYMid" refX="0" refY="0" viewBox="0 0 5.667 5.667"><path transform="scale(0.5)" style="fill:context-stroke;fill-rule:evenodd;stroke:context-stroke;stroke-width:1pt" id="Dot1" d="M 5,0 C 5,2.76 2.76,5 0,5 -2.76,5 -5,2.76 -5,0 c 0,-2.76 2.3,-5 5,-5 2.76,0 5,2.24 5,5 z"/></marker></defs><g id="layer1" transform="translate(-21.200816,-31.216754)"><rect style="fill:#fff;stroke:#2e3436;stroke-width:.3;stroke-linecap:round;stroke-linejoin:round;stroke-dasharray:2.4,1.2" id="rect7104" width="111.712" height="156.731" x="21.351" y="31.367" rx="1" ry="1"/><g id="g7188"><g id="g3435" transform="translate(-46.33097,17.229709)"><path id="path1709" style="fill:none;stroke:#2e3436;stroke-width:.3;stroke-linecap:round;stroke-linejoin:round" d="m 135.03507,19.287295 c -0.554,0 -0.99994,0.445939 -0.99994,0.999939 0.0332,8.996822 0.002,9.463219 0,17.300237 0,0.553999 0.44594,0.999939 0.99994,0.999939 h 19.70835 c 0.554,0 0.99994,-0.44594 0.99994,-0.999939 V 24.721073 c 0,-0.554 -0.44594,-1.000456 -0.99994,-1.000456 h -5.66012 v -3.433383 c 0,-0.554 -0.44594,-0.999939 -0.99993,-0.999939 z"/><text xml:space="preserve" style="font-size:5.64444px;font-family:'OpenGost Type B TT';-inkscape-font-specification:'OpenGost Type B TT, Normal';text-align:center;text-anchor:middle;fill:#2e3436;stroke:none;stroke-width:.3;stroke-linecap:round;stroke-linejoin:round" id="text1713" x="140.09" y="24.08"><tspan id="tspan1711" style="font-size:5.64444px;fill:#2e3436;stroke:none;stroke-width:.3" x="140.09" y="24.08">ROOT</tspan></text><text xml:space="preserve" style="font-size:3.52778px;font-family:'OpenGost Type B TT';-inkscape-font-specification:'OpenGost Type B TT, Normal';text-align:start;text-anchor:start;fill:#2e3436;stroke:none;stroke-width:.3;stroke-linecap:round;stroke-linejoin:round" id="text1725" x="135.17" y="28"><tspan style="font-size:3.52778px;text-align:start;text-anchor:start;fill:#2e3436;stroke:none;stroke-width:.3" id="tspan1715" x="135.17" y="28">- GLOBAL ID</tspan><tspan style="font-size:3.52778px;text-align:start;text-anchor:start;fill:#2e3436;stroke:none;stroke-width:.3" id="tspan1717" x="135.17" y="32.41">- NAME</tspan><tspan style="font-size:3.52778px;text-align:start;text-anchor:start;fill:#2e3436;stroke:none;stroke-width:.3" id="tspan1719" x="135.17" y="36.819">- DESCRIPTION</tspan></text></g><g id="g3183" transform="translate(-46.571039,17.229709)"><path id="path1729" style="fill:none;stroke:#2e3436;stroke-width:.3;stroke-linecap:round;stroke-linejoin:round" d="m 120.4235,46.746787 c -0.554,0 -0.99994,0.445939 -0.99994,0.999939 0.0332,8.996821 0.002,18.459051 0,26.296069 0,0.553999 0.44594,0.999939 0.99994,0.999939 h 19.70835 c 0.554,0 0.99994,-0.44594 0.99994,-0.999939 V 52.180564 c 0,-0.554 -0.44594,-1.000456 -0.99994,-1.000456 h -1.95595 v -3.433382 c 0,-0.554 -0.44594,-0.999939 -0.99993,-0.999939 z"/><text xml:space="preserve" style="font-size:5.64444px;font-family:'OpenGost Type B TT';-inkscape-font-specification:'OpenGost Type B TT, Normal';text-align:center;text-anchor:middle;fill:#2e3436;stroke:none;stroke-width:.3;stroke-linecap:round;stroke-linejoin:round" id="text1733" x="128.535" y="51.539"><tspan id="tspan1731" style="font-size:5.64444px;fill:#2e3436;stroke:none;stroke-width:.3" x="128.535" y="51.539">OBJECTS</tspan></text><text xml:space="preserve" style="font-size:3.52778px;font-family:'OpenGost Type B TT';-inkscape-font-specification:'OpenGost Type B TT, Normal';text-align:start;text-anchor:start;fill:#2e3436;stroke:none;stroke-width:.3;stroke-linecap:round;stroke-linejoin:round" id="text1745" x="120.559" y="55.459"><tspan style="font-size:3.52778px;text-align:start;text-anchor:start;fill:#babdb6;stroke:none;stroke-width:.3" id="tspan1735" x="120.559" y="55.459">- GLOBAL ID</tspan><tspan style="font-size:3.52778px;text-align:start;text-anchor:start;fill:#babdb6;stroke:none;stroke-width:.3" id="tspan1737" x="120.559" y="59.869">- NAME</tspan><tspan style="font-size:3.52778px;text-align:start;text-anchor:start;fill:#babdb6;stroke:none;stroke-width:.3" id="tspan1739" x="120.559" y="64.279">- DESCRIPTION</tspan><tspan style="font-size:3.52778px;text-align:start;text-anchor:start;fill:#2e3436;stroke:none;stroke-width:.3" id="tspan1741" x="120.559" y="68.689">- TYPE</tspan><tspan style="font-size:3.52778px;text-align:start;text-anchor:start;fill:#2e3436;stroke:none;stroke-width:.3" id="tspan1743" x="120.559" y="73.098">...</tspan></text></g><g id="g3190" transform="translate(-49.001431,17.229709)"><path id="path2090" style="fill:none;stroke:#2e3436;stroke-width:.3;stroke-linecap:round;stroke-linejoin:round" d="m 152.55717,46.746787 c -0.554,0 -0.99994,0.445939 -0.99994,0.999939 0.0332,8.996821 0.002,0.467384 0,8.304402 0,0.553999 0.44594,0.999939 0.99994,0.999939 h 19.70835 c 0.554,0 0.99994,-0.44594 0.99994,-0.999939 v -3.870564 c 0,-0.554 -0.44594,-1.000456 -0.99994,-1.000456 h -1.95595 v -3.433382 c 0,-0.554 -0.44594,-0.999939 -0.99993,-0.999939 z"/><text xml:space="preserve" style="font-size:5.64444px;font-family:'OpenGost Type B TT';-inkscape-font-specification:'OpenGost Type B TT, Normal';text-align:center;text-anchor:middle;fill:#2e3436;stroke:none;stroke-width:.3;stroke-linecap:round;stroke-linejoin:round" id="text2094" x="158.906" y="51.539"><tspan id="tspan2092" style="font-size:5.64444px;fill:#2e3436;stroke:none;stroke-width:.3" x="158.906" y="51.539">TYPES</tspan></text><text xml:space="preserve" style="font-size:3.52778px;font-family:'OpenGost Type B TT';-inkscape-font-specification:'OpenGost Type B TT, Normal';text-align:start;text-anchor:start;fill:#2e3436;stroke:none;stroke-width:.3;stroke-linecap:round;stroke-linejoin:round" id="text2106" x="152.693" y="55.459"><tspan style="font-size:3.52778px;text-align:start;text-anchor:start;fill:#2e3436;stroke:none;stroke-width:.3" id="tspan2104" x="152.693" y="55.459">...</tspan></text></g><g id="g3216" transform="translate(-79.922916,20.533045)"><path id="path1951" style="fill:none;stroke:#2e3436;stroke-width:.3;stroke-linecap:round;stroke-linejoin:round" d="m 120.4235,79.522043 c -0.554,0 -0.99994,0.445939 -0.99994,0.999939 0.0332,8.996821 0.002,23.221548 0,31.058568 0,0.554 0.44594,0.99994 0.99994,0.99994 h 23.41251 c 0.554,0 0.99994,-0.44594 0.99994,-0.99994 V 84.95582 c 0,-0.554 -0.44594,-1.000456 -0.99994,-1.000456 h -1.95595 v -3.433382 c 0,-0.554 -0.44594,-0.999939 -0.99993,-0.999939 z"/><text xml:space="preserve" style="font-size:5.64444px;font-family:'OpenGost Type B TT';-inkscape-font-specification:'OpenGost Type B TT, Normal';text-align:center;text-anchor:middle;fill:#2e3436;stroke:none;stroke-width:.3;stroke-linecap:round;stroke-linejoin:round" id="text1955" x="130.489" y="84.314"><tspan id="tspan1953" style="font-size:5.64444px;fill:#2e3436;stroke:none;stroke-width:.3" x="130.489" y="84.314">PRODUCTS</tspan></text><text xml:space="preserve" style="font-size:3.52778px;font-family:'OpenGost Type B TT';-inkscape-font-specification:'OpenGost Type B TT, Normal';text-align:start;text-anchor:start;fill:#2e3436;stroke:none;stroke-width:.3;stroke-linecap:round;stroke-linejoin:round" id="text1967" x="120.559" y="88.235"><tspan style="font-size:3.52778px;text-align:start;text-anchor:start;fill:#babdb6;stroke:none;stroke-width:.3" id="tspan1957" x="120.559" y="88.235">- GLOBAL ID</tspan><tspan style="font-size:3.52778px;text-align:start;text-anchor:start;fill:#babdb6;stroke:none;stroke-width:.3" id="tspan1959" x="120.559" y="92.644">- NAME</tspan><tspan style="font-size:3.52778px;text-align:start;text-anchor:start;fill:#babdb6;stroke:none;stroke-width:.3" id="tspan1961" x="120.559" y="97.054">- DESCRIPTION</tspan><tspan style="font-size:3.52778px;text-align:start;text-anchor:start;fill:#babdb6;stroke:none;stroke-width:.3" id="tspan1963" x="120.559" y="101.464">- TYPE</tspan><tspan style="font-size:3.52778px;text-align:start;text-anchor:start;fill:#2e3436;stroke:none;stroke-width:.3" id="tspan1965" x="120.559" y="105.874">- GEOMETRY</tspan><tspan style="font-size:3.52778px;text-align:start;text-anchor:start;fill:#2e3436;stroke:none;stroke-width:.3" id="tspan2260" x="120.559" y="110.283">- LOCATION</tspan></text></g><g id="g3197" transform="translate(-78.74649,20.533045)"><path id="path2119" style="fill:none;stroke:#2e3436;stroke-width:.3;stroke-linecap:round;stroke-linejoin:round" d="m 152.55717,79.522043 c -0.554,0 -0.99994,0.445939 -0.99994,0.999939 0.0332,8.996821 0.002,0.467384 0,8.304402 0,0.553999 0.44594,0.999939 0.99994,0.999939 h 18.12085 c 0.554,0 0.99994,-0.44594 0.99994,-0.999939 V 84.95582 c 0,-0.554 -0.44594,-1.000456 -0.99994,-1.000456 h -1.95595 v -3.433382 c 0,-0.554 -0.44594,-0.999939 -0.99993,-0.999939 z"/><text xml:space="preserve" style="font-size:5.64444px;font-family:'OpenGost Type B TT';-inkscape-font-specification:'OpenGost Type B TT, Normal';text-align:center;text-anchor:middle;fill:#2e3436;stroke:none;stroke-width:.3;stroke-linecap:round;stroke-linejoin:round" id="text2123" x="159.964" y="84.314"><tspan id="tspan2121" style="font-size:5.64444px;fill:#2e3436;stroke:none;stroke-width:.3" x="159.964" y="84.314">GROUPS</tspan></text><text xml:space="preserve" style="font-size:3.52778px;font-family:'OpenGost Type B TT';-inkscape-font-specification:'OpenGost Type B TT, Normal';text-align:start;text-anchor:start;fill:#2e3436;stroke:none;stroke-width:.3;stroke-linecap:round;stroke-linejoin:round" id="text2127" x="152.693" y="88.235"><tspan style="font-size:3.52778px;text-align:start;text-anchor:start;fill:#2e3436;stroke:none;stroke-width:.3" id="tspan2125" x="152.693" y="88.235">...</tspan></text></g><g id="g3204" transform="translate(-78.347362,20.533045)"><path id="path2129" style="fill:none;stroke:#2e3436;stroke-width:.3;stroke-linecap:round;stroke-linejoin:round" d="m 180.26003,79.522043 c -0.554,0 -0.99994,0.445939 -0.99994,0.999939 0.0332,8.996821 0.002,0.467384 0,8.304402 0,0.553999 0.44594,0.999939 0.99994,0.999939 h 25.00002 c 0.554,0 0.99994,-0.44594 0.99994,-0.999939 V 84.95582 c 0,-0.554 -0.44594,-1.000456 -0.99994,-1.000456 h -1.95595 v -3.433382 c 0,-0.554 -0.44594,-0.999939 -0.99993,-0.999939 z"/><text xml:space="preserve" style="font-size:5.64444px;font-family:'OpenGost Type B TT';-inkscape-font-specification:'OpenGost Type B TT, Normal';text-align:center;text-anchor:middle;fill:#2e3436;stroke:none;stroke-width:.3;stroke-linecap:round;stroke-linejoin:round" id="text2133" x="191.371" y="84.314"><tspan id="tspan2131" style="font-size:5.64444px;fill:#2e3436;stroke:none;stroke-width:.3" x="191.371" y="84.314">RESOURCES</tspan></text><text xml:space="preserve" style="font-size:3.52778px;font-family:'OpenGost Type B TT';-inkscape-font-specification:'OpenGost Type B TT, Normal';text-align:start;text-anchor:start;fill:#2e3436;stroke:none;stroke-width:.3;stroke-linecap:round;stroke-linejoin:round" id="text2137" x="180.395" y="88.235"><tspan style="font-size:3.52778px;text-align:start;text-anchor:start;fill:#2e3436;stroke:none;stroke-width:.3" id="tspan2135" x="180.395" y="88.235">...</tspan></text></g><g id="g3596" transform="translate(-94.414472,20.738137)"><g id="g3230"><path id="rect1405" style="fill:none;stroke:#2e3436;stroke-width:.3;stroke-linecap:round;stroke-linejoin:round" d="m 121.9155,120.68433 c -0.554,0 -0.99994,0.44594 -0.99994,0.99994 0.0332,8.99683 0.002,31.68823 0,39.52525 0,0.554 0.44594,0.99994 0.99994,0.99994 h 19.70835 c 0.554,0 0.99994,-0.44594 0.99994,-0.99994 v -35.09141 c 0,-0.554 -0.44594,-1.00046 -0.99994,-1.00046 h -5.66012 v -3.43338 c 0,-0.554 -0.44594,-0.99994 -0.99993,-0.99994 z"/><text xml:space="preserve" style="font-size:5.64444px;font-family:'OpenGost Type B TT';-inkscape-font-specification:'OpenGost Type B TT, Normal';text-align:center;text-anchor:middle;fill:#2e3436;stroke:none;stroke-width:.3;stroke-linecap:round;stroke-linejoin:round" id="text1409" x="128.44" y="125.477"><tspan id="tspan1407" style="font-size:5.64444px;fill:#2e3436;stroke:none;stroke-width:.3" x="128.44" y="125.477">WALL</tspan></text><text xml:space="preserve" style="font-size:3.52778px;font-family:'OpenGost Type B TT';-inkscape-font-specification:'OpenGost Type B TT, Normal';text-align:start;text-anchor:start;fill:#2e3436;stroke:none;stroke-width:.3;stroke-linecap:round;stroke-linejoin:round" id="text1415" x="122.051" y="129.397"><tspan style="font-size:3.52778px;text-align:start;text-anchor:start;fill:#babdb6;stroke:none;stroke-width:.3" id="tspan1519" x="122.051" y="129.397">- GLOBAL ID</tspan><tspan style="font-size:3.52778px;text-align:start;text-anchor:start;fill:#babdb6;stroke:none;stroke-width:.3" id="tspan1527" x="122.051" y="133.807">- NAME</tspan><tspan style="font-size:3.52778px;text-align:start;text-anchor:start;fill:#babdb6;stroke:none;stroke-width:.3" id="tspan1521" x="122.051" y="138.216">- DESCRIPTION</tspan><tspan style="font-size:3.52778px;text-align:start;text-anchor:start;fill:#babdb6;stroke:none;stroke-width:.3" id="tspan2262" x="122.051" y="142.626">- TYPE</tspan><tspan style="font-size:3.52778px;text-align:start;text-anchor:start;fill:#babdb6;stroke:none;stroke-width:.3" id="tspan2264" x="122.051" y="147.036">- GEOMETRY</tspan><tspan style="font-size:3.52778px;text-align:start;text-anchor:start;fill:#babdb6;stroke:none;stroke-width:.3" id="tspan2266" x="122.051" y="151.446">- LOCATION</tspan><tspan style="font-size:3.52778px;text-align:start;text-anchor:start;fill:#2e3436;stroke:none;stroke-width:.3" id="tspan1523" x="122.051" y="155.855">- WALL TYPE</tspan><tspan style="font-size:3.52778px;text-align:start;text-anchor:start;fill:#2e3436;stroke:none;stroke-width:.3" id="tspan1529" x="122.051" y="160.265">...</tspan></text></g><g id="g3256" transform="translate(29.703283)"><path id="path3232" style="fill:none;stroke:#2e3436;stroke-width:.3;stroke-linecap:round;stroke-linejoin:round" d="m 121.9155,120.68433 c -0.554,0 -0.99994,0.44594 -0.99994,0.99994 0.0332,8.99683 0.002,31.68823 0,39.52525 0,0.554 0.44594,0.99994 0.99994,0.99994 h 19.70835 c 0.554,0 0.99994,-0.44594 0.99994,-0.99994 v -35.09141 c 0,-0.554 -0.44594,-1.00046 -0.99994,-1.00046 h -5.66012 v -3.43338 c 0,-0.554 -0.44594,-0.99994 -0.99993,-0.99994 z"/><text xml:space="preserve" style="font-size:5.64444px;font-family:'OpenGost Type B TT';-inkscape-font-specification:'OpenGost Type B TT, Normal';text-align:center;text-anchor:middle;fill:#2e3436;stroke:none;stroke-width:.3;stroke-linecap:round;stroke-linejoin:round" id="text3236" x="128.44" y="125.477"><tspan id="tspan3234" style="font-size:5.64444px;fill:#2e3436;stroke:none;stroke-width:.3" x="128.44" y="125.477">SLAB</tspan></text><text xml:space="preserve" style="font-size:3.52778px;font-family:'OpenGost Type B TT';-inkscape-font-specification:'OpenGost Type B TT, Normal';text-align:start;text-anchor:start;fill:#2e3436;stroke:none;stroke-width:.3;stroke-linecap:round;stroke-linejoin:round" id="text3254" x="122.051" y="129.397"><tspan style="font-size:3.52778px;text-align:start;text-anchor:start;fill:#babdb6;stroke:none;stroke-width:.3" id="tspan3238" x="122.051" y="129.397">- GLOBAL ID</tspan><tspan style="font-size:3.52778px;text-align:start;text-anchor:start;fill:#babdb6;stroke:none;stroke-width:.3" id="tspan3240" x="122.051" y="133.807">- NAME</tspan><tspan style="font-size:3.52778px;text-align:start;text-anchor:start;fill:#babdb6;stroke:none;stroke-width:.3" id="tspan3242" x="122.051" y="138.216">- DESCRIPTION</tspan><tspan style="font-size:3.52778px;text-align:start;text-anchor:start;fill:#babdb6;stroke:none;stroke-width:.3" id="tspan3244" x="122.051" y="142.626">- TYPE</tspan><tspan style="font-size:3.52778px;text-align:start;text-anchor:start;fill:#babdb6;stroke:none;stroke-width:.3" id="tspan3246" x="122.051" y="147.036">- GEOMETRY</tspan><tspan style="font-size:3.52778px;text-align:start;text-anchor:start;fill:#babdb6;stroke:none;stroke-width:.3" id="tspan3248" x="122.051" y="151.446">- LOCATION</tspan><tspan style="font-size:3.52778px;text-align:start;text-anchor:start;fill:#2e3436;stroke:none;stroke-width:.3" id="tspan3250" x="122.051" y="155.855">- SLAB TYPE</tspan><tspan style="font-size:3.52778px;text-align:start;text-anchor:start;fill:#2e3436;stroke:none;stroke-width:.3" id="tspan3252" x="122.051" y="160.265">...</tspan></text></g></g><path style="fill:none;stroke:#2e3436;stroke-width:.3;stroke-linecap:round;stroke-linejoin:round;stroke-dasharray:none;marker-end:url(#Dot)" id="path3794" d="m 98.558201,55.817119 c 0,3.949447 -16.32226,3.949447 -16.32958,8.159377"/><path style="fill:none;stroke:#2e3436;stroke-width:.3;stroke-linecap:round;stroke-linejoin:round;stroke-dasharray:none;marker-end:url(#Dot)" id="path3798" d="m 98.599271,55.817119 c 0,3.949447 13.325309,3.949447 13.332629,8.159377"/><path style="fill:none;stroke:#2e3436;stroke-width:.3;stroke-linecap:round;stroke-linejoin:round;stroke-dasharray:none;marker-end:url(#Dot)" id="path4597" d="m 83.706561,92.272444 c 0,3.949446 -32.97041,3.572713 -32.97773,7.782646"/><path style="fill:none;stroke:#2e3436;stroke-width:.3;stroke-linecap:round;stroke-linejoin:round;stroke-dasharray:none;marker-end:url(#Dot)" id="path4601" d="m 83.706561,92.272444 c 0,3.949446 -2.30615,3.572712 -2.31347,7.782646"/><path style="fill:none;stroke:#2e3436;stroke-width:.3;stroke-linecap:round;stroke-linejoin:round;stroke-dasharray:none;marker-end:url(#Dot)" id="path4607" d="m 83.706561,92.272444 c 0,3.949446 29.235429,3.572711 29.228109,7.782646"/><path style="fill:none;stroke:#2e3436;stroke-width:.3;stroke-linecap:round;stroke-linejoin:round;stroke-dasharray:none;marker-end:url(#Dot)" id="path4613" d="m 52.206771,133.11353 c 0,3.94945 -18.17435,4.09899 -18.18167,8.30893"/><path style="fill:none;stroke:#2e3436;stroke-width:.3;stroke-linecap:round;stroke-linejoin:round;stroke-dasharray:none;marker-end:url(#Dot)" id="path4617" d="m 52.206771,133.11353 c 0,3.94945 11.52893,4.09899 11.52161,8.30893"/></g></g></svg>