<svg xmlns="http://www.w3.org/2000/svg" xmlns:ev="http://www.w3.org/2001/xml-events" xmlns:xlink="http://www.w3.org/1999/xlink" baseProfile="full" version="1.1"><g id="rectangle-tag"><rect width="12" height="5" x="-6" y="-2.5" fill="#fff" stroke="#000" style="stroke-width:.25"/></g><g id="triangle-tag"><path style="fill:#fff;stroke:#000;stroke-width:.25" d="M 3.1409425e-7,-7.1069207 5.7650623,2.8784603 l -11.5301246,-6e-7 z"/></g><g id="hexagon-tag"><path style="fill:#fff;stroke:#000;stroke-width:.25" d="m 0.0161133,-6.0583333 5.2339915,3.8366023 -2.031433,6.1633977 c 0,0 -6.4894866,-0.027414 -6.4894866,-0.027414 l -1.97929,-6.1803395 5.2662181,-3.7922467"/></g><g id="capsule-tag"><rect width="12" height="5" x="-6" y="-2.5" fill="#fff" stroke="#000" rx="2.5" ry="2.5" style="stroke-width:.25"/></g><g id="circle-tag"><circle r="5" fill="#fff" stroke="#000" style="stroke-width:.25"/></g><g id="door-tag"><circle r="5" fill="#fff" stroke="#000" style="stroke-width:.25"/><line x1="-5" x2="5" style="stroke:#000;stroke-width:.25"/></g><g id="window-tag"><path style="fill:#fff;stroke:#000;stroke-width:.25" d="m 0.0161133,-6.0583333 5.2339915,3.8366023 -2.031433,6.1633977 c 0,0 -6.4894866,-0.027414 -6.4894866,-0.027414 l -1.97929,-6.1803395 5.2662181,-3.7922467"/></g><g id="space-tag"><rect width="12" height="5" x="-6" y="-2.5" fill="#fff" stroke="#000" style="stroke-width:.25"/></g><g id="elevation-arrow"><path style="fill:#000" d="M -7.07106 0 0 -7.07106 7.07106 0"/></g><g id="elevation-tag"><circle r="5" fill="#fff" stroke="#000" style="stroke-width:.25"/><line x1="-5" x2="5" y1="0" y2="0" style="stroke:#000;stroke-width:.25"/></g><g id="section-arrow"><path style="fill:#000" d="M -7.07106 0 0 -7.07106 7.07106 0"/></g><g id="section-tag"><circle r="5" fill="#fff" stroke="#000" style="stroke-width:.25"/><line x1="-5" x2="5" y1="0" y2="0" style="stroke:#000;stroke-width:.25"/></g><g id="dot"><circle r="1" fill="#000" stroke="#000" style="stroke-width:.25"/></g><g id="setout-tag"><circle r="2.5" fill="#fff" stroke="#000" style="stroke-width:.5"/><path fill="#000" d="M 0 0 L -2.5 0 A 2.5 2.5 0 0 1 0 -2.5 Z"/><path fill="#000" d="M 0 0 L 2.5 0 A 2.5 2.5 0 0 1 0 2.5 Z"/></g><g id="setout-point"><circle r="2.5" fill="#fff" stroke="#000" style="stroke-width:.5"/><path fill="#000" d="M 0 0 L -2.5 0 A 2.5 2.5 0 0 1 0 -2.5 Z"/><path fill="#000" d="M 0 0 L 2.5 0 A 2.5 2.5 0 0 1 0 2.5 Z"/></g><g id="control-point"><path style="fill:#fff;stroke:#000;stroke-width:.5" d="M 2.286165,1.4798666 H -1.0000316e-7 -2.2861651 L -1.1430826,-0.5000101 -1.0000316e-7,-2.479888 1.1430827,-0.5000101 Z"/><circle r=".5" fill="#000" stroke="#000" style="stroke-width:.25"/></g><g id="traverse-point"><path style="fill:#fff;stroke:#000;stroke-width:.5" d="M -2,-2 2,2 M -2,2 2,-2"/></g><g id="spot-elevation"><path style="fill:#fff;stroke:#000;stroke-width:.5" d="M 0,-2 0,2 M -2,0 2,0"/></g></svg>