<svg xmlns="http://www.w3.org/2000/svg" xmlns:svg="http://www.w3.org/2000/svg" style="display:inline;enable-background:new" id="svg2" width="20" height="20" version="1.0"><metadata id="metadata34337"/><g id="layer8" style="display:inline" transform="translate(-318,-470)"><g style="display:inline;fill:#777;fill-opacity:1;enable-background:new" id="g12839" transform="translate(-21)"><path style="color:#000;font-style:normal;font-variant:normal;font-weight:400;font-stretch:normal;font-size:medium;line-height:normal;font-family:sans-serif;font-variant-ligatures:normal;font-variant-position:normal;font-variant-caps:normal;font-variant-numeric:normal;font-variant-alternates:normal;font-feature-settings:normal;text-indent:0;text-align:start;text-decoration:none;text-decoration-line:none;text-decoration-style:solid;text-decoration-color:#000;letter-spacing:normal;word-spacing:normal;text-transform:none;writing-mode:lr-tb;direction:ltr;text-orientation:mixed;dominant-baseline:auto;baseline-shift:baseline;text-anchor:start;white-space:normal;shape-padding:0;clip-rule:nonzero;display:inline;overflow:visible;visibility:visible;opacity:1;isolation:auto;mix-blend-mode:normal;color-interpolation:sRGB;color-interpolation-filters:linearRGB;solid-color:#000;solid-opacity:1;vector-effect:none;fill:#777;fill-opacity:1;fill-rule:nonzero;stroke:none;stroke-width:1;stroke-linecap:round;stroke-linejoin:round;stroke-miterlimit:4;stroke-dasharray:none;stroke-dashoffset:0;stroke-opacity:1;marker:none;color-rendering:auto;image-rendering:auto;shape-rendering:auto;text-rendering:auto;enable-background:new" id="path12837" d="m 353.13867,473.0332 c -0.49613,-0.0451 -1.03862,0.15972 -1.49219,0.61328 l -0.75,0.75 c -0.19519,0.19527 -0.19519,0.51177 0,0.70704 l 3,3 c 0.19527,0.19519 0.51177,0.19519 0.70704,0 l 0.75,-0.75 c 0.45356,-0.45357 0.65838,-0.99606 0.61328,-1.49219 -0.0451,-0.49613 -0.30436,-0.90592 -0.61328,-1.21485 l -1,-1 c -0.30893,-0.30892 -0.71872,-0.56817 -1.21485,-0.61328 z m -3.39644,2.7168 c -0.12989,0.002 -0.25387,0.0546 -0.34571,0.14648 l -6.25,6.25 c -0.0639,0.0642 -0.10909,0.14453 -0.13086,0.23243 l -1,4 c -0.0904,0.36537 0.2401,0.69582 0.60547,0.60547 l 4,-1 c 0.0879,-0.0218 0.16823,-0.067 0.23243,-0.13086 l 6.25,-6.25 c 0.19519,-0.19527 0.19519,-0.51177 0,-0.70704 l -3,-3 c -0.0957,-0.0957 -0.22605,-0.14856 -0.36137,-0.14648 z"/></g></g></svg>