<svg xmlns="http://www.w3.org/2000/svg" xmlns:svg="http://www.w3.org/2000/svg" style="display:inline;enable-background:new" id="svg2" width="20" height="20" version="1.0"><metadata id="metadata34337"/><g id="layer8" style="display:inline" transform="translate(-381,-575)"><g id="g21041" style="display:inline;enable-background:new"><path id="path18998-9" style="color:#000;font-style:normal;font-variant:normal;font-weight:400;font-stretch:normal;font-size:medium;line-height:normal;font-family:sans-serif;font-variant-ligatures:normal;font-variant-position:normal;font-variant-caps:normal;font-variant-numeric:normal;font-variant-alternates:normal;font-feature-settings:normal;text-indent:0;text-align:start;text-decoration:none;text-decoration-line:none;text-decoration-style:solid;text-decoration-color:#000;letter-spacing:normal;word-spacing:normal;text-transform:none;writing-mode:lr-tb;direction:ltr;text-orientation:mixed;dominant-baseline:auto;baseline-shift:baseline;text-anchor:start;white-space:normal;shape-padding:0;clip-rule:nonzero;display:inline;overflow:visible;visibility:visible;opacity:1;isolation:auto;mix-blend-mode:normal;color-interpolation:sRGB;color-interpolation-filters:linearRGB;solid-color:#000;solid-opacity:1;vector-effect:none;fill:#777;fill-opacity:1;fill-rule:nonzero;stroke:none;stroke-width:1;stroke-linecap:round;stroke-linejoin:round;stroke-miterlimit:4;stroke-dasharray:none;stroke-dashoffset:0;stroke-opacity:1;marker:none;paint-order:fill markers stroke;color-rendering:auto;image-rendering:auto;shape-rendering:auto;text-rendering:auto;enable-background:accumulate" d="m 398,581 h -1 v -2 l 0.8535,-0.8535 c 0.091,0.09 0.1465,0.2154 0.1465,0.3535 z m -1,-2 0.8535,-0.8535 C 397.7635,578.0555 397.6381,578 397.5,578 h -9 c -0.1326,0 -0.2598,0.053 -0.3535,0.1465 l -4,4.0078 c -0.094,0.094 -0.1465,0.2209 -0.1465,0.3535 V 591.5 c 0,0.2761 0.2239,0.5 0.5,0.5 h 13 c 0.2761,0 0.5,-0.2239 0.5,-0.5 V 589 c -10e-5,-1.0628 -0.406,-2.084 -1.1367,-2.8438 l -0.01,-0.01 L 394.707,584 h 2.793 c 0.6761,0.01 0.6761,-1.0096 0,-1 h -3.9395 c -0.3255,-0.042 -0.6029,0.235 -0.5605,0.5605 V 587.5 c -0.01,0.6761 1.0096,0.6761 1,0 v -2.793 l 2.1426,2.1426 c 0.5484,0.5702 0.8573,1.3426 0.8574,2.1504 v 2 h -12 v -8.2852 L 388.707,579 Z"/></g></g></svg>